# xmcd
#
# Track frame offsets:
#	150
#	13002
#	32386
#	49034
#	67209
#	77147
#	96974
#	116502
#	128881
#	146093
#
# Disc length: 2155 seconds
#
# Revision: 11
# Processed by: cddbd v1.5.2PL0 Copyright (c) Steve Scherf et al.
# Submitted via: Jack! The Knife 20 Magnifico
#
DISCID=8708690a
DTITLE=Gossip - Standing In The Way Of Control
DYEAR=2006
DGENRE=Indie
TTITLE0=Fire With Fire
TTITLE1=Standing In The Way Of Control
TTITLE2=Jealous Girls
TTITLE3=Coal To Diamonds
TTITLE4=Eyes Open
TTITLE5=Yr Mangled Heart
TTITLE6=Listen Up!
TTITLE7=Holy Water
TTITLE8=Keeping You Alive
TTITLE9=Dark Lines
EXTD=Guy Picciotto
EXTT0=
EXTT1=
EXTT2=
EXTT3=
EXTT4=
EXTT5=
EXTT6=
EXTT7=
EXTT8=
EXTT9=
PLAYORDER=
